PathFileType	4	(X/Y/Z)	Patient4_TMGait_0pt4_02_right_23.trc.trc
DataRate	CameraRate	NumFrames	NumMarkers	Units	OrigDataRate	OrigDataStartFrame	OrigNumFrames
74.074074074074	74.074074074074	5	33	mm	74.074074074074	124	       141
Frame#	Time	Sacral			L.Shoulder			Chest			R.Shoulder			Neck			R.ASIS			L.ASIS			R.Thigh.Superior			R.Thigh.Lateral			R.Thigh.Inferior			R.Patella			L.Thigh.Superior			L.Thigh.Lateral			L.Thigh.Inferior			L.Patella			L.Shank.Superior			L.Shank.Lateral			L.Shank.Inferior			R.Shank.Superior			R.Shank.Lateral			R.Shank.Inferior			R.Heel			R.Midfoot.Superior			R.Midfoot.Lateral			R.Toe			L.Heel			L.Midfoot.Lateral			L.Midfoot.Superior			L.Toe			L.Elbow			L.Wrist			R.Elbow			R.Wrist			
		X1	Y1	Z1	X2	Y2	Z2	X3	Y3	Z3	X4	Y4	Z4	X5	Y5	Z5	X6	Y6	Z6	X7	Y7	Z7	X8	Y8	Z8	X9	Y9	Z9	X10	Y10	Z10	X11	Y11	Z11	X12	Y12	Z12	X13	Y13	Z13	X14	Y14	Z14	X15	Y15	Z15	X16	Y16	Z16	X17	Y17	Z17	X18	Y18	Z18	X19	Y19	Z19	X20	Y20	Z20	X21	Y21	Z21	X22	Y22	Z22	X23	Y23	Z23	X24	Y24	Z24	X25	Y25	Z25	X26	Y26	Z26	X27	Y27	Z27	X28	Y28	Z28	X29	Y29	Z29	X30	Y30	Z30	X31	Y31	Z31	X32	Y32	Z32	X33	Y33	Z33	

124	31.820500000000	918.462681260335	1000.953912779056	449.121829195715	1115.074991864610	1431.752009175516	278.375269964001	1203.822465768995	1360.729219610657	446.006157081963	1107.628403466762	1433.577421553167	613.676155328955	1088.073482172762	1492.034766618098	434.175374331011	1141.755439472715	940.141422872716	580.806197434174	1140.753908517253	958.368504880492	304.628475206585	1202.587849277647	749.794112142601	555.955604580347	1140.481182608483	634.692773995013	623.862737587034	1224.748781904485	589.574250350379	544.415424598521	1244.600742851684	509.247526345162	556.630759530549	1151.853040328193	731.634561886603	331.590703519288	1042.814554117663	633.616867797663	262.563624849415	1106.856739022981	541.919265614769	325.587257730942	1093.995115141795	473.849624749094	332.468916964087	1059.481690343653	406.661472064363	322.544532958049	955.368566188902	305.443632911324	271.008555630092	991.069228258843	186.616486111475	337.942292615365	1228.944049672903	420.151660759449	570.009690361243	1174.160912565051	309.334633222648	635.952527515796	1237.180511874048	220.775844226154	582.246827693121	1136.107892664170	43.811915864198	559.741041818250	1303.744926392181	104.706382614799	592.461823079025	1221.392997102998	39.268302325310	631.861405844505	1426.736926627632	59.686452089810	616.609148992128	852.453950280567	38.598030530123	382.229566450154	920.677988792756	34.946617058782	296.962096461468	1005.956311834773	95.442524169091	320.300630876462	1132.382905402773	42.173331681313	281.330997229279	1160.191448892383	1101.266436133564	125.084029496618	1408.964125881447	1029.970219962743	143.944246625173	989.702677287742	1106.747348629100	723.010403849226	999.669702638157	844.926223824504	722.354216088044	
125	31.834000000000	920.370087417280	999.720903845737	452.195868967573	1115.636133165375	1431.102574780741	282.011791153188	1204.751186701954	1360.231344019549	449.526117124494	1108.399277853753	1432.547201332922	617.391359732557	1088.748876429024	1491.239269889848	437.915119274789	1144.125959078881	939.199356115015	583.254781157458	1142.436599513997	957.757891110390	307.218433894317	1206.028632522811	749.124113704954	557.664679600915	1142.638812066135	633.551494243927	624.390537050703	1227.313527880645	589.036228080714	545.178991318834	1245.712663371948	507.374518059833	556.544458853034	1153.075807854227	730.546657712269	333.034637176995	1043.037976214613	632.916216588202	264.698883961200	1107.339785008154	540.714872213746	326.850256673511	1094.485829251157	472.055261284915	333.373126788687	1058.493235865222	405.460150477955	323.639761799244	952.535017627191	305.941887731224	272.184785138035	986.938386288518	186.154918500924	338.259120421029	1228.672929185814	417.539165987097	569.609046540452	1171.734221878924	307.778570295211	635.804152430801	1231.842002073162	217.748667200414	581.237630868133	1125.984655980176	43.447029826713	559.260688461349	1294.743839344967	101.649059119932	591.432609433081	1211.196576501814	38.183499481720	631.524374511455	1417.338021503212	54.550370239282	615.869788297492	846.955503527478	38.860108584886	382.201518560435	915.242473202292	34.988174463303	297.032505477048	1000.722868247245	95.363170903160	320.277564456066	1127.035770088619	41.806007934169	281.229736488482	1158.841645485715	1099.923554509943	129.000132158813	1406.786571533187	1025.380193042893	148.225250882846	993.088427653457	1104.525993417895	726.442273641053	1006.715762192238	842.793704837435	725.950905467152	
126	31.847500000000	922.246658792858	998.621201811499	455.343120041445	1116.132821054822	1430.613787771558	285.777536796058	1205.687776701564	1359.862895437019	453.138241847546	1109.249896971874	1431.616848258847	621.249500117878	1089.443342319441	1490.592794577042	441.811135120880	1146.511970082687	938.452557081556	585.745182852995	1144.007307606380	957.258256944764	309.877901505877	1209.374137538789	748.591868454503	559.322830713961	1145.015863299037	632.772034813287	625.132260661494	1229.854083329060	588.723343684285	545.951703449510	1246.942491433533	505.772713934360	556.624793938206	1154.696242742162	729.674533874796	334.474346551807	1043.784198448846	632.187728101694	266.939230390022	1108.626758503350	539.566277388384	328.150014422715	1095.887352800650	470.166122868539	334.230057570536	1058.192258814364	404.233744224994	324.732660478806	950.176625684270	306.684264212703	273.440126547253	983.118969632754	185.869852025852	338.577090571005	1228.675019529212	415.368659957059	569.450803349186	1170.025452609243	306.582131916653	636.099161952865	1227.303715493729	215.254414078733	580.507949564647	1117.099484145823	43.131095579670	559.181699263782	1286.746676831360	99.431919225193	590.695620080168	1202.349811266702	37.440226774507	631.462581092336	1409.090885938014	50.749811679639	615.204250786747	841.490604848360	39.582723225429	382.145649203257	909.834287584737	35.255937563545	297.100950854487	995.652877746243	95.346279983506	320.190575520734	1121.695972499698	41.387930980051	281.110769702485	1157.017276354209	1098.585642347997	133.173279909111	1403.895904261404	1019.947604910204	152.410560955549	997.148000255557	1102.156484211949	730.063716077176	1014.927961113532	840.582722644843	729.706460398399	
127	31.861000000000	924.052657258572	997.728173294429	458.532549578755	1116.593824767527	1430.343204525693	289.642981282455	1206.632508201834	1359.652531857753	456.814733084242	1110.185989538713	1430.836900303168	625.210342806220	1090.167717430344	1490.140334190751	445.828185894407	1148.838820718959	937.939078492695	588.296637039579	1145.422086565886	956.912381399717	312.608603618658	1212.461426653429	748.226571152799	560.941699465186	1147.508264208266	632.358328998161	626.129485488074	1232.230797124280	588.614257260584	546.767574682200	1248.173262190091	504.474108797030	556.955394982509	1156.724309515469	729.091293636021	335.966479235584	1045.185755672034	631.455619477257	269.253549938535	1110.884228791767	538.531507146830	329.483507591485	1098.361474292374	468.234139093779	335.004576850780	1058.739495185018	403.027202300210	325.785483071740	948.453995259929	307.759651083138	274.736435763463	979.732932716895	185.864261111865	338.867217879048	1228.825750921678	413.669543415110	569.590540529996	1168.873008863793	305.743060202581	636.790778347348	1223.513132293801	213.336021218901	580.084868087016	1109.513189375655	42.887318604516	559.387072587676	1279.804625754788	98.021663835983	590.253707085854	1194.868544393185	37.007673527488	631.604465727422	1402.013317989638	48.229812617972	614.674713755899	836.120625396994	40.992332638506	382.052798631019	904.490465829326	35.887951646126	297.157434972196	990.828133486970	95.442410334520	320.013895440067	1116.364754541507	40.918492344542	280.977570322265	1154.712038461379	1097.317674407468	137.619329889497	1400.224402419363	1013.700413180443	156.438428724359	1001.839794098793	1099.742314371258	733.851548648295	1024.267019790795	838.427405715521	733.603311712548	
128	31.874500000000	925.751524835998	997.091706212221	461.753502277126	1117.034054753621	1430.327053488083	293.577561323373	1207.578751738247	1359.615252158841	460.524543726268	1111.207492009892	1430.242267622102	629.231643259620	1090.921658690050	1489.907307278210	449.929078761711	1151.045637822783	937.672149869453	590.926577503888	1146.647842579850	956.757437768076	315.406871945810	1215.169127295963	748.035396553784	562.549981848372	1149.977017391483	632.267631841737	627.397921873758	1234.317661869165	588.653822272941	547.678097001247	1249.267660807637	503.462327899422	557.586980725629	1159.156530280459	728.860480540582	337.570754759012	1047.384197661455	630.743885671555	271.599460247650	1114.282557419528	537.672705812370	330.837363907842	1102.072143657923	466.324062069443	335.655384426971	1060.309805190645	401.888695083430	326.757062760112	947.551487577426	309.256302772316	276.028730634324	976.922277440306	186.246907251033	339.098501867430	1228.958777228852	412.407992171898	570.045607870057	1168.021242379804	305.215932786518	637.790809919721	1220.294250265570	211.960306761237	579.962130745711	1103.082253895845	42.723579903038	559.763560842340	1273.798098852187	97.296431797834	590.077474611289	1188.570530615997	36.825977774946	631.877966096602	1395.949155026251	46.798987606891	614.312878216089	830.934946365664	43.335504559325	381.918593040370	899.267034818554	37.049278401467	297.194145628574	986.345631400087	95.717325415225	319.727980501201	1111.047700726965	40.401443006511	280.837395147350	1151.926581057723	1096.176422489905	142.345478252130	1395.695109862599	1006.672340658222	160.264100837646	1007.111558342347	1097.379998956531	737.788053633397	1034.709752415435	836.467409055726	737.618053603508	
